<svg width="18" height="21" viewBox="0 0 18 21" fill="none" xmlns="http://www.w3.org/2000/svg">
<path d="M2.53302 19.0993L1.64418 6.6H16.3558L15.467 19.0993C15.4149 19.8321 14.8052 20.4 14.0705 20.4H3.92949C3.19483 20.4 2.58513 19.8321 2.53302 19.0993Z" stroke="gray" stroke-width="1.2"/>
<path d="M2 3.6H16C16.7732 3.6 17.4 4.2268 17.4 5V6C17.4 6.22091 17.2209 6.4 17 6.4H1C0.779086 6.4 0.6 6.22091 0.6 6V5C0.6 4.2268 1.2268 3.6 2 3.6Z" stroke="gray" stroke-width="1.2"/>
<path d="M7 0.6H11C11.7732 0.6 12.4 1.2268 12.4 2V3.4H5.6V2C5.6 1.2268 6.2268 0.6 7 0.6Z" stroke="gray" stroke-width="1.2"/>
<path d="M6 9V18" stroke="gray"/>
<path d="M9 9V18" stroke="gray"/>
<path d="M12 9V18" stroke="gray"/>
</svg>
