<svg width="35" height="35" viewBox="0 0 35 35" fill="none" xmlns="http://www.w3.org/2000/svg">
<path d="M16.9135 3.65618C17.2129 2.73487 18.5163 2.73487 18.8156 3.65618L21.3235 11.3746C21.4574 11.7866 21.8413 12.0656 22.2746 12.0656L30.3902 12.0656C31.3589 12.0656 31.7617 13.3052 30.978 13.8746L24.4123 18.6448C24.0618 18.8995 23.9151 19.3508 24.049 19.7629L26.5569 27.4813C26.8562 28.4026 25.8018 29.1687 25.018 28.5993L18.4524 23.8291C18.1019 23.5744 17.6273 23.5744 17.2768 23.8291L10.7111 28.5993C9.92742 29.1687 8.87294 28.4026 9.17229 27.4813L11.6802 19.7629C11.814 19.3508 11.6674 18.8995 11.3169 18.6448L4.75122 13.8746C3.9675 13.3052 4.37028 12.0656 5.339 12.0656L13.4546 12.0656C13.8878 12.0656 14.2718 11.7866 14.4057 11.3746L16.9135 3.65618Z" fill="#FFDD64"/>
</svg>
